<svg xmlns="http://www.w3.org/2000/svg" xmlns:xlink="http://www.w3.org/1999/xlink" width="48" height="48" version="1.1" viewBox="-6 0 48 48"><title>logo</title><desc>Created with Sketch.</desc><g id="Page-1" fill="none" fill-rule="evenodd" stroke="none" stroke-width="1"><g id="Artboard" fill="#21005D" fill-rule="nonzero" transform="translate(-32.000000, -32.000000)"><path id="logo" d="M66.2653595,40.0792949 L62.9432285,52.3408672 C62.9113241,52.2699584 62.8762917,52.2012459 62.8415721,52.1315922 C62.7812039,52.0051486 62.7177077,51.8796463 62.6473302,51.7575954 C61.819378,50.3187118 60.5200529,49.2632376 58.9642409,48.7373831 C58.8272393,48.6909473 58.691489,48.6420014 58.5504212,48.6040369 C58.5081947,48.5927417 58.4656554,48.5867804 58.4234289,48.5764264 C56.7212316,48.15317 54.9533488,48.3982132 53.4300668,49.2801804 L34.0355908,60.5126341 L37.8982209,46.2872649 L58.6586461,34.2641469 C61.1340575,32.8302834 64.310116,33.6846401 65.7392486,36.1673889 C66.4264458,37.3609156 66.6125552,38.7530496 66.2653595,40.0792949 Z M59.3868187,59.6501197 L53.5085768,63.1579083 L42.9406909,69.4047841 L46.9343796,54.8537365 L54.2120391,50.6387426 C54.5116908,50.4655494 54.8238541,50.3234181 55.1444628,50.2142311 C55.9633441,49.9346748 56.8366507,49.8694136 57.6974458,50.0218989 C57.8472717,50.0485681 57.9967848,50.0796299 58.1456723,50.1194769 C59.4828449,50.4790409 60.6007524,51.339359 61.2929543,52.5422983 C61.2935799,52.5435534 61.2945182,52.5451222 61.2951438,52.5463772 C61.8362686,53.4898405 62.0621022,54.8913872 61.8828741,56.1457824 C61.592606,57.6207479 60.6983426,58.8905172 59.3868187,59.6501197 Z M49.3960283,77.7001708 L42.9413165,71.2255084 L51.7801053,66.0005349 L52.656227,65.482838 L49.3960283,77.7001708 Z M67.0936245,35.3829997 C65.2337817,32.1506886 61.0983996,31.0393659 57.8766739,32.9055848 L36.837241,45.090287 C36.6586385,45.1935126 36.5282055,45.3635682 36.4737803,45.5634305 L32.027486,61.9380262 C31.9442841,62.2448793 32.0537603,62.5718127 32.304617,62.7657137 C32.4447464,62.8736457 32.6130268,62.9285529 32.7822456,62.9285529 C32.9164321,62.9285529 33.0515569,62.8940398 33.172919,62.8234448 L45.0057232,55.970393 L40.9203873,70.8555904 C40.9110037,70.8885348 40.9053735,70.9217929 40.9006816,70.955051 C40.9003688,70.9585023 40.8988049,70.9616399 40.8984921,70.9647774 C40.8981793,70.9654049 40.8984921,70.9663462 40.8984921,70.9672875 C40.8916108,71.0206259 40.8922363,71.0736506 40.8966154,71.1263616 C40.8975537,71.1385981 40.8988049,71.1505208 40.9003688,71.1624435 C40.9069374,71.2148407 40.9169467,71.2666104 40.93415,71.3164975 C40.9347756,71.3180663 40.935714,71.3199489 40.9363396,71.3218314 C40.9532302,71.3701498 40.975751,71.4162718 41.0017125,71.4608252 C41.0076554,71.4705516 41.0132856,71.4799643 41.0192286,71.4893769 C41.0480052,71.534244 41.0805353,71.576601 41.1183827,71.6148792 C41.1196339,71.6161342 41.1202594,71.6173892 41.1211978,71.6183305 L49.2480791,79.7703308 C49.3966539,79.9196785 49.5962132,80 49.8010899,80 C49.8686523,80 49.9365275,79.9912148 50.0034643,79.9733308 C50.2734012,79.9008532 50.4842209,79.6893819 50.5564751,79.4186107 L54.5786276,64.3445324 L60.1778618,61.003348 C61.8406476,60.0401181 62.970754,58.2633196 63.5143811,56.2113574 C63.5181345,56.1994347 63.521888,56.1875119 63.5250159,56.1755892 L67.7761299,40.4852947 C68.2306122,38.7489707 67.9882008,36.9367179 67.0936245,35.3829997 Z"/></g></g></svg>