<?xml version="1.0" encoding="UTF-8"?>
<svg width="514px" height="239px" viewBox="0 0 514 239" version="1.1" xmlns="http://www.w3.org/2000/svg" xmlns:xlink="http://www.w3.org/1999/xlink">
    <g id="paper-black" stroke="none" stroke-width="1" fill="none" fill-rule="evenodd">
        <path d="M225.4283,93.4692 C214.4203,93.4692 207.1933,103.0322 207.1933,115.3742 C207.1933,127.9392 214.4203,137.3902 225.4283,137.3902 C236.5473,137.3902 243.8853,127.8272 243.8853,115.3742 C243.8853,102.9202 236.5473,93.4692 225.4283,93.4692 Z M200.6323,163.0742 L200.6323,88.9102 L207.1933,88.9102 L207.1933,99.4742 C209.7493,94.0262 215.9773,87.4652 226.5393,87.4652 C241.5503,87.4652 250.5573,99.6962 250.5573,115.3742 C250.5573,131.1632 241.2173,143.3942 226.3183,143.3942 C216.0873,143.3942 209.9723,137.2792 207.3043,131.9422 L207.3043,163.0742 L200.6323,163.0742 Z" id="Fill-1" fill="#6200ee"></path>
        <path d="M296.4762,120.2661 L296.4762,114.2621 C296.1422,114.5961 294.6972,115.2631 292.5842,115.5961 L277.7962,117.8211 C271.5692,118.7091 267.6772,122.1571 267.6772,127.9391 C267.6772,132.8311 271.6802,137.6121 279.0192,137.6121 C289.1372,137.6121 296.4762,130.9411 296.4762,120.2661 M260.8952,128.2721 C260.8952,119.2661 267.1222,114.0391 276.7952,112.5941 L290.9162,110.4821 C295.4752,109.8151 296.4762,107.8131 296.4762,105.3671 C296.4762,98.3621 291.8062,93.3581 283.1332,93.3581 C274.6822,93.3581 269.1232,98.0291 268.2342,105.7011 L262.0072,104.3671 C263.2302,94.2471 271.6802,87.5771 283.0222,87.5771 C296.8092,87.5771 303.1472,95.9151 303.1472,106.0341 L303.1472,132.8311 C303.1472,137.0561 303.4812,139.7251 303.9252,141.9491 L297.3662,141.9491 C297.1432,140.7261 296.6992,137.1671 296.6992,132.8311 C294.2522,137.8341 287.9142,143.2831 278.2412,143.2831 C267.1222,143.2831 260.8952,135.9451 260.8952,128.2721" id="Fill-3" fill="#6200ee"></path>
        <path d="M345.1754,93.4692 C334.1674,93.4692 326.9404,103.0322 326.9404,115.3742 C326.9404,127.9392 334.1674,137.3902 345.1754,137.3902 C356.2944,137.3902 363.6324,127.8272 363.6324,115.3742 C363.6324,102.9202 356.2944,93.4692 345.1754,93.4692 Z M320.3794,163.0742 L320.3794,88.9102 L326.9404,88.9102 L326.9404,99.4742 C329.4964,94.0262 335.7244,87.4652 346.2864,87.4652 C361.2974,87.4652 370.3044,99.6962 370.3044,115.3742 C370.3044,131.1632 360.9644,143.3942 346.0654,143.3942 C335.8344,143.3942 329.7194,137.2792 327.0514,131.9422 L327.0514,163.0742 L320.3794,163.0742 Z" id="Fill-5" fill="#6200ee"></path>
        <path d="M423.2281,111.1489 C423.0051,101.2529 416.6671,93.4689 405.5481,93.4689 C395.6531,93.4689 388.5371,101.3639 387.8701,111.1489 L423.2281,111.1489 Z M429.9001,126.9379 C426.8971,135.9449 418.8921,143.3939 406.6611,143.3939 C392.6511,143.3939 380.8651,133.0529 380.8651,115.2629 C380.8651,98.5849 392.2061,87.4649 405.4381,87.4649 C421.1161,87.4649 430.1221,98.5849 430.2331,114.2619 C430.2331,115.1519 430.2331,115.8189 430.1221,116.7089 L387.6471,116.7089 L387.6471,117.1529 C387.7581,129.3839 396.2081,137.3899 406.6611,137.3899 C416.2231,137.3899 421.7831,131.8309 424.0061,124.8259 L429.9001,126.9379 Z" id="Fill-7" fill="#6200ee"></path>
        <path d="M471.0367,95.8042 C469.8127,95.4712 468.1447,95.2482 466.3667,95.2482 C457.3597,95.2482 450.6887,101.0312 450.6887,113.1502 L450.6887,141.9492 L444.0167,141.9492 L444.0167,88.9102 L450.5777,88.9102 L450.5777,98.8072 C453.8027,91.4682 459.9177,88.2432 466.9227,88.2432 C468.7017,88.2432 470.1467,88.4662 471.0367,88.7992 L471.0367,95.8042 Z" id="Fill-9" fill="#6200ee"></path>
        <path d="M152.0567,68.7808 L141.4357,107.8608 C141.3337,107.6348 141.2217,107.4158 141.1107,107.1938 C140.9177,106.7908 140.7147,106.3908 140.4897,106.0018 C137.8427,101.4158 133.6887,98.0518 128.7147,96.3758 C128.2767,96.2278 127.8427,96.0718 127.3917,95.9508 C127.2567,95.9148 127.1207,95.8958 126.9857,95.8628 C121.5437,94.5138 115.8917,95.2948 111.0217,98.1058 L49.0167,133.9058 L61.3657,88.5668 L127.7377,50.2468 C135.6517,45.6768 145.8057,48.3998 150.3747,56.3128 C152.5717,60.1168 153.1667,64.5538 152.0567,68.7808 Z M130.0657,131.1568 L111.2727,142.3368 L77.4867,162.2468 L90.2547,115.8698 L113.5217,102.4358 C114.4797,101.8838 115.4777,101.4308 116.5027,101.0828 C119.1207,100.1918 121.9127,99.9838 124.6647,100.4698 C125.1437,100.5548 125.6217,100.6538 126.0977,100.7808 C130.3727,101.9268 133.9467,104.6688 136.1597,108.5028 C136.1617,108.5068 136.1647,108.5118 136.1667,108.5158 C137.8967,111.5228 138.6187,115.9898 138.0457,119.9878 C137.1177,124.6888 134.2587,128.7358 130.0657,131.1568 Z M98.1247,188.6858 L77.4887,168.0498 L105.7467,151.3968 L108.5477,149.7468 L98.1247,188.6858 Z M154.7047,53.8128 C148.7587,43.5108 135.5377,39.9688 125.2377,45.9168 L57.9737,84.7518 C57.4027,85.0808 56.9857,85.6228 56.8117,86.2598 L42.5967,138.4488 C42.3307,139.4268 42.6807,140.4688 43.4827,141.0868 C43.9307,141.4308 44.4687,141.6058 45.0097,141.6058 C45.4387,141.6058 45.8707,141.4958 46.2587,141.2708 L84.0887,119.4288 L71.0277,166.8708 C70.9977,166.9758 70.9797,167.0818 70.9647,167.1878 C70.9637,167.1988 70.9587,167.2088 70.9577,167.2188 C70.9567,167.2208 70.9577,167.2238 70.9577,167.2268 C70.9357,167.3968 70.9377,167.5658 70.9517,167.7338 C70.9547,167.7728 70.9587,167.8108 70.9637,167.8488 C70.9847,168.0158 71.0167,168.1808 71.0717,168.3398 C71.0737,168.3448 71.0767,168.3508 71.0787,168.3568 C71.1327,168.5108 71.2047,168.6578 71.2877,168.7998 C71.3067,168.8308 71.3247,168.8608 71.3437,168.8908 C71.4357,169.0338 71.5397,169.1688 71.6607,169.2908 C71.6647,169.2948 71.6667,169.2988 71.6697,169.3018 L97.6517,195.2838 C98.1267,195.7598 98.7647,196.0158 99.4197,196.0158 C99.6357,196.0158 99.8527,195.9878 100.0667,195.9308 C100.9297,195.6998 101.6037,195.0258 101.8347,194.1628 L114.6937,146.1188 L132.5947,135.4698 C137.9107,132.3998 141.5237,126.7368 143.2617,120.1968 C143.2737,120.1588 143.2857,120.1208 143.2957,120.0828 L156.8867,70.0748 C158.3397,64.5408 157.5647,58.7648 154.7047,53.8128 Z" id="Fill-11" fill="#6200ee"></path>
    </g>
</svg>
